<svg width="800" height="280" xmlns="http://www.w3.org/2000/svg">
  <style>
    text {
      font-family: 'SFMono-Regular', 'SF Mono', 'Cascadia Code', Consolas, 'Liberation Mono', Menlo, monospace;
    }
  </style>

  <!-- Background -->
  <rect width="800" height="280" rx="12" fill="#1e1e2e"/>

  <!-- Title bar -->
  <rect width="800" height="38" rx="12" fill="#181825"/>
  <rect y="26" width="800" height="12" fill="#181825"/>

  <!-- Window buttons -->
  <circle cx="22" cy="19" r="6" fill="#f38ba8"/>
  <circle cx="42" cy="19" r="6" fill="#f9e2af"/>
  <circle cx="62" cy="19" r="6" fill="#a6e3a1"/>

  <!-- Title -->
  <text x="400" y="24" text-anchor="middle" font-size="12" fill="#585b70">gfriloux — fish</text>

  <!-- Column separator -->
  <rect x="234" y="46" width="1" height="220" fill="#313244"/>

  <!--
    NixOS official logo — viewBox 0 0 128 128, scaled to 120×120px
    and centered in the left column (center x=117, top y=90).
  -->
  <g transform="translate(57, 90) scale(0.9375)">
    <path fill="#7EBAE4" d="M50.732 43.771L20.525 96.428l-7.052-12.033 8.14-14.103-16.167-.042L2 64.237l3.519-6.15 23.013.073 8.27-14.352 13.93-.037zm2.318 42.094l60.409.003-6.827 12.164-16.205-.045 8.047 14.115-3.45 6.01-7.05.008-11.445-20.097-16.483-.034-6.996-12.124zm35.16-23.074l-30.202-52.66L71.888 10l8.063 14.148 8.12-14.072 6.897.002 3.532 6.143-11.57 20.024 8.213 14.386-6.933 12.16z" clip-rule="evenodd" fill-rule="evenodd"/>
    <path fill="#5277C3" d="M39.831 65.463l30.202 52.66-13.88.131-8.063-14.148-8.12 14.072-6.897-.002-3.532-6.143 11.57-20.024-8.213-14.386 6.933-12.16zm35.08-23.207l-60.409-.003L21.33 30.09l16.204.045-8.047-14.115 3.45-6.01 7.051-.01 11.444 20.097 16.484.034 6.996 12.124zm2.357 42.216l30.207-52.658 7.052 12.034-8.141 14.102 16.168.043L126 64.006l-3.519 6.15-23.013-.073-8.27 14.352-13.93.037z" clip-rule="evenodd" fill-rule="evenodd"/>
  </g>

  <!-- NixOS label below the logo -->
  <text x="117" y="232" text-anchor="middle" font-size="13"
        fill="#7ebae4" font-weight="bold">NixOS</text>

  <!-- ── Right column: neofetch data ── -->

  <!-- user@host -->
  <text x="260" y="75" font-size="14">
    <tspan fill="#89b4fa" font-weight="bold">gfriloux</tspan><tspan fill="#585b70">@</tspan><tspan fill="#89b4fa" font-weight="bold">github</tspan>
  </text>

  <!-- divider -->
  <text x="260" y="97" font-size="13" fill="#cba6f7">&#x2500;&#x2500;&#x2500;&#x2500;&#x2500;&#x2500;&#x2500;&#x2500;&#x2500;&#x2500;&#x2500;&#x2500;&#x2500;&#x2500;&#x2500;&#x2500;&#x2500;&#x2500;&#x2500;&#x2500;&#x2500;&#x2500;&#x2500;&#x2500;&#x2500;&#x2500;&#x2500;&#x2500;&#x2500;&#x2500;&#x2500;&#x2500;&#x2500;&#x2500;&#x2500;</text>

  <text x="260" y="119" font-size="13">
    <tspan fill="#cba6f7" font-weight="bold">OS     </tspan><tspan fill="#cdd6f4"> NixOS (unstable)</tspan>
  </text>
  <text x="260" y="141" font-size="13">
    <tspan fill="#cba6f7" font-weight="bold">Shell  </tspan><tspan fill="#cdd6f4"> fish</tspan>
  </text>
  <text x="260" y="163" font-size="13">
    <tspan fill="#cba6f7" font-weight="bold">Lang   </tspan><tspan fill="#a6e3a1"> C</tspan><tspan fill="#585b70"> · </tspan><tspan fill="#fab387">Rust</tspan><tspan fill="#585b70"> · </tspan><tspan fill="#7ebae4">Nix</tspan>
  </text>
  <text x="260" y="185" font-size="13">
    <tspan fill="#cba6f7" font-weight="bold">Infra  </tspan><tspan fill="#cdd6f4"> AWS · Terraform · Ansible</tspan>
  </text>
  <text x="260" y="207" font-size="13">
    <tspan fill="#cba6f7" font-weight="bold">Uptime </tspan><tspan fill="#cdd6f4"> 25+ years on Linux</tspan>
  </text>
  <text x="260" y="229" font-size="13">
    <tspan fill="#cba6f7" font-weight="bold">From   </tspan><tspan fill="#cdd6f4"> Landes, France</tspan>
  </text>

  <!-- Catppuccin Mocha color palette -->
  <circle cx="260" cy="258" r="7" fill="#f38ba8"/>
  <circle cx="282" cy="258" r="7" fill="#fab387"/>
  <circle cx="304" cy="258" r="7" fill="#f9e2af"/>
  <circle cx="326" cy="258" r="7" fill="#a6e3a1"/>
  <circle cx="348" cy="258" r="7" fill="#94e2d5"/>
  <circle cx="370" cy="258" r="7" fill="#89b4fa"/>
  <circle cx="392" cy="258" r="7" fill="#cba6f7"/>
  <circle cx="414" cy="258" r="7" fill="#f5c2e7"/>
</svg>
